<?xml version="1.0" encoding="UTF-8"?>
<svg id="Layer_2" data-name="Layer 2" xmlns="http://www.w3.org/2000/svg" viewBox="0 0 402.81 371.97">
  <defs>
    <style>
      .cls-1 {
        opacity: .82;
      }

      .cls-2 {
        fill: #dfd6d2;
      }
    </style>
  </defs>
  <g id="Layer_1-2" data-name="Layer 1">
    <g id="uuid-656629f1-d11e-4a25-b433-96871dcb2679" data-name="Layer 1-2" class="cls-1">
      <g>
        <path class="cls-2" d="M402.39,198.57l-.19-1.96-2.41.75.02.31c0,.18.04.56.07.99.03.47.08,1,.1,1.38.53,8.19.29,15.26-.8,23.67-.11.85-.23,1.69-.36,2.54-2.77,18.5-9.35,36.66-19.56,53.97-1.12,1.9-2.34,3.86-3.62,5.85-1.17,1.81-2.41,3.65-3.68,5.46-.43.62-.87,1.24-1.31,1.85-.46.64-.93,1.28-1.4,1.91-.8,1.08-1.62,2.15-2.44,3.22-2.52,3.23-5.18,6.41-7.92,9.48-2.53,2.82-5.21,5.62-7.94,8.3-7.76,7.61-16.24,14.56-25.2,20.64-1.98,1.34-4.04,2.68-6.11,3.96-18.38,10.56-33.16,16.79-47.93,20.23l-.19.05c-19.82,4.95-38.26,4.31-54.79-1.87-14.49-5.43-27.96-15.29-40.04-29.33-.7-.8-1.38-1.63-2.05-2.46-2.84-3.51-5.66-7.33-8.38-11.35l-.07-.11c-.23-.33-.46-.67-.68-1.01-.91-1.38-1.85-2.81-2.77-4.29-2.02-3.22-4.07-6.66-6.05-10.22-1.9-3.41-3.82-7.03-5.69-10.75-4.2-8.35-8.43-17.74-12.95-28.67-1.62-4.1-8.64-21.93-8.97-22.76l-6.64-21.45,53.16-16.65,215.32-67.05-.09-.32.08-.02-.11-.37c-8.57-30.07-23.71-57.55-43.78-79.46-21.78-23.77-49.01-40.29-78.75-47.77C200.84-11.74,116.71,13.9,76.75,63.59c-21.21,26.38-30.84,58.14-27.87,91.85l.02.17c-.02.08-.04.15-.05.23-.05.8-.19,1.45-.38,1.94-1.56,3.49-6.51,3.25-11.29,3.01-2.7-.14-5.24-.26-6.96.33-2.91.83-3.78,3.45-4.61,5.97-.48,1.45-.97,2.96-1.89,4.07-.43.66-.95,1.28-1.49,1.92-1.21,1.44-2.45,2.92-2.87,5.06-.05.28-.09.57-.12.87l-.14.58.05.2c-.15,2.33.22,4.88.6,7.34.22,1.51.43,2.93.52,4.25.14,1.67.24,3.32.34,4.98.19,3.25.4,6.62.91,9.99,1.68,12.98,5.07,27.07,10.37,43.03l-1.17.5c-2.85-4.91-4.78-8.62-5.88-11.32-1.12-2.75-1.69-5.63-2.25-8.43-.45-2.25-.91-4.58-1.65-6.78l-.12-.93c-.02-.19.08-.38.25-.5,1.31-.91,1.87-1.58,1.85-2.23-.02-.77-.81-1.24-1.81-1.84-.43-.26-.9-.54-1.38-.88-.06-.05-.12-.11-.15-.18-.22-.49-.47-.99-.72-1.5-.87-1.79-1.78-3.64-2.2-5.47l-.02-.17c-.15-3.39.74-5.58,1.69-7.9.73-1.79,1.49-3.65,1.69-6.04.38-4.55-5.67-8.59-8.83-8.87-.1,0-.26,0-.79.1-2.98-.34-6.02.46-7.93,2.1-.06.05-.14.09-.22.12-.71.25-.85.35-.94.43-1.88,1.86-1.44,3.57-.74,5,.19,1.77.76,3.62,1.31,5.39.33,1.07.65,2.08.85,3.01.02.07,1.9,7.36,2.98,8.18.26.22.49.2.63.15.36-.13.45-.56.49-.77l.05-.26c.02-.1.03-.19.05-.31.04-.33.09-.71.12-1.11.16-1.5.36-3.36.75-4.47.16-.38.29-.55.45-.68.27.04,1.04,1.4,1.75,5.36,2.57,14.33,8.49,27.1,13.35,36.63,8.73,17.27,17.84,31.8,27.85,44.4,16.01,22.25,31.76,38.06,49.56,49.76l.22-.33-.13.39.4.27c.18.12.36.24.54.36l.99.64c.58.39,1.17.77,1.76,1.15,9.94,6.35,20.95,11.8,32.72,16.21l2.29.84c5.16,1.86,10.55,3.56,16,5.02,2.6.7,5.29,1.37,7.95,1.97,5.9,1.34,11.97,2.46,18.04,3.32l.34.05c.53.08,1.04.15,1.57.22,2.32.31,4.73.59,7.16.83,7.67.77,15.33,1.14,22.92,1.14,44.05,0,86.28-12.64,118.48-35.91.61-.44,1.22-.9,1.82-1.35l.6-.46c7.54-5.66,14.69-11.95,21.24-18.7,2.36-2.43,4.66-4.95,6.84-7.47,2.76-3.19,5.54-6.65,8.25-10.29.66-.89,1.33-1.79,1.97-2.69,2.13-2.97,4.21-6.08,6.2-9.27,1.14-1.82,2.26-3.69,3.33-5.56,10.05-17.52,16.48-35.72,19.1-54.12,1.4-9.81,1.82-18.12.97-27.61l.02.02ZM204.91,10.24l.04.42c19.55,4.98,36.01,19.65,51.78,46.14,8.12,13.65,15.69,29.45,23.12,48.32,6.89,17.56,12.84,35.64,18.61,53.13l-124.35,38.92-52.7,16.42-10.58-34.18c-.02-.21-.02-.42-.02-.63,0-.19.14-.35.23-.43,1.41-1.33,1.71-3.58,2.11-6.69.1-.8.22-1.65.36-2.55.12-.8.51-1.78.89-2.71.6-1.48,1.21-3.02.94-4.21-.05-.22-.16-.42-.35-.6-1.3-1.3-2.72-2.44-4.27-3.42-.66-.58-1.38-1.11-2.09-1.63-1.55-1.14-3.01-2.23-3.98-3.81-.2-.28-.39-.57-.57-.87-.03-.05-.05-.12-.06-.19-.35-3.79-2.8-7.03-6.86-9.08-2.75-1.8-7.66-3.12-11.11-2.22-1.49.39-2.54,1.14-3.11,2.24-.24.46-.39.99-.46,1.58-.06,1.15.89,2.67,1.89,4.29.25.4.5.81.74,1.21,1.57,2.65,1.72,3.97.53,4.71-.54.31-1.32.41-2.15.51-1.28.16-2.88.36-3.32,2l-.04.32c-.09.79-.19,1.6-.36,2.37-.49,2.14-1.5,3.26-3.32,3.64-2.78.67-5.15-.05-7.91-.9-1.31-.4-2.65-.82-4.16-1.12-1.11-.2-2.22-.32-3.29-.44-4.67-.52-8.36-.93-9-6.57l-.02-.08c-2.21-24.17,2.99-48.15,15.35-70.21,14.69-26.23,39.1-48.03,68.72-61.4,27.55-12.43,48.88-16.32,67.13-12.27.52.12,1.04.24,1.55.37l.1-.39h-.02Z"/>
        <path class="cls-2" d="M13.92,232.51h0c-.51-1.91-1.4-3.66-2.2-5.13-.19-.32-.41-.71-.63-1.12-.9-1.65-1.44-2.58-2.09-2.58h-.02c-.15,0-.43.07-.62.47l-.13.77c-.24,1.63-.52,3.49-.54,5.01l.02.15c.03.34.15.7.34,1.11.05.12.12.23.23.42l4.71,5.22.19.12c.05.02.11.05.23.09.05,0,.09.02.14.02.19,0,.37-.08.5-.22.6-.62.26-2.6,0-3.72-.05-.2-.09-.39-.14-.6h0Z"/>
        <path class="cls-2" d="M68.02,147s-.03-.03-.05-.05c-.02-.26-.08-.48-.17-.69-.6-1.3-1.92-2.18-3.45-2.3-1.41-.11-2.67.47-3.33,1.48-.34.35-.6.75-.76,1.18-.31.7-.36,1.42-.13,2.01l.08.18c.11.2.26.39.49.6.63.58,1.71.98,2.86,1.08.63.21,1.2.31,1.72.31s.99-.11,1.4-.32c.81-.43,1.41-1.27,1.79-2.5l.02-.09-.02-.09c-.07-.47-.28-.67-.43-.81h-.02Z"/>
        <path class="cls-2" d="M68.14,314.83c-8.85-8.32-16.55-18.26-23.06-26.93l-.1-.14c-2.35-3.2-4.64-6.78-6.84-10.23-1.87-2.93-3.8-5.96-5.77-8.73-.63-1.04-1.89-2.67-3.08-4.03-.32-.41-.63-.75-.93-1-1.12-1.15-1.66-1.46-2.06-1.17-.38.28-.38.8.71,2.88.69,1.22,1.58,2.68,2.66,4.34,9.82,15.26,33.17,45.37,40.34,51.16.52.44.96.66,1.32.66.05,0,.09,0,.13,0,.19-.03.36-.14.47-.3.09-.09.17-.25.18-.49.02-1.14-2.01-4.19-3.49-5.55,0,0-.48-.46-.48-.46Z"/>
      </g>
    </g>
  </g>
</svg>