<?xml version="1.0" encoding="UTF-8"?>
<svg id="Layer_1" xmlns="http://www.w3.org/2000/svg" version="1.1" viewBox="0 0 1080 1080">
  <!-- Generator: Adobe Illustrator 29.8.2, SVG Export Plug-In . SVG Version: 2.1.1 Build 3)  -->
  <defs>
    <style>
      .st0 {
        fill: #221f20;
      }
    </style>
  </defs>
  <g>
    <path class="st0" d="M626.5,447.9c-2.6-2-9.4-7.1-12.8-9.1-15.5-8.7-33.3-9-48.9-.9-17.3,9-29.3,26.9-31.4,46.8-1.5,14,.5,27.2,5.8,38.1,4.9,10.3,12.6,18.5,22.2,23.6,7.3,3.9,15.3,5.9,23.8,5.9s5.2-.2,7.8-.6c11.6-1.7,23.3-7.1,33.8-15.6l3.3,16.1h6v-166.8h-9.4v62.4ZM588.6,433.7c15.7,0,29.3,8.9,37.9,16.4l-.3,84.5c-10.8,8.7-21.4,13.7-31.5,14.8-10.8,1.2-21.1-2.1-30.6-9.8-8.9-7.2-15.2-18.2-18.2-31.8-2.8-12.8-2.3-26.6,1.4-38.9,6.1-20.5,19.7-33.2,37.3-35,1.4-.1,2.8-.2,4.1-.2Z"/>
    <path class="st0" d="M494.9,532.3c-19,11.7-31.8,15.2-39.1,16-9.2,1-16.6-.8-22-5.3-3.9-3.3-7.2-8-8.6-14.6s-.6-8.8-.6-13.3c0-12.4-.1-23.1,0-35.3s0-13.8,0-20.7c0-6.5,0-25.5,0-25.5-1,0-5.6,0-8.9,0s-1.4,0-2,0h-.2v94.5c0,6.5,5.1,13.3,7.5,15.7,5.6,5.8,13.2,8.7,22.5,8.7h0c13.4,0,30.6-6,51.3-17.9,0,.7,0,1.5,0,2.4-.2,4.1-.4,10.2,3,13.4,1.8,1.6,4.4,2.3,7.7,2h.5v-118.7h-11.1v98.7Z"/>
    <path class="st0" d="M178.1,439.3c-19.5-10.4-45.3-9-64.2,3.6-8.6,5.8-15.5,13.7-19.8,23-4.8,10.3-6.6,22.2-5.3,35.3,1.1,10.9,5.4,21,12.5,29.3,6.8,7.9,15.9,14,26.4,17.7,7.2,2.5,15.3,3.9,23.4,3.9h0c5.8,0,11.3-.7,16.3-2,2.4-.6,9.5-3.3,13.3-5.7,13.2-8.4,17.9-16.8,20.3-22.8,0,0,2.7-6.6,2.7-7.1h-2.2s-2.8,8.3-7.6,14.6-12.5,11.7-14.9,13.2c-1.1.7-4.8,2.4-5.6,2.7-11.7,4.4-21.4,4-31.7,1-11.7-3.3-22.7-10.5-31-20.2-8.2-9.6-12.9-20.8-13.2-31.6h110v-.5c0-24.9-10.4-44.3-29.4-54.4ZM147,434.9c14,.4,25,5.1,30.1,9,11.8,9.1,18.5,25.6,19.4,47.9h-98.9c.1-17.5,6.2-33,17.1-43.7,9.1-8.8,20.6-13.5,32.3-13.2Z"/>
    <path class="st0" d="M749.8,431.1h0c-14.1.6-28,6.6-39.2,16.8-11.1,10.1-18.2,23.3-20,37.1-2.1,15.5,2.6,30.7,13.6,44.1,12,14.8,27.3,22.6,44.1,22.6s7.4-.4,11.1-1.1c11.3-2.3,22.1-7.8,31.1-16.1,9.1-8.3,15.6-18.4,18.9-29.4,6-20.1.1-40.2-16.4-56.4-12.4-12.1-27.3-18.2-43.2-17.5ZM804.7,506.6c-1.9,10.7-7.7,20.3-16.8,27.6-9.8,7.9-21.5,11.6-34,10.6-11.2-.9-22.9-5.6-32.7-13.3-10.4-8.1-18.3-18.9-22.2-30.5-4.3-12.8-3.7-25.8,1.8-37.7,2.7-5.8,7.7-11.9,13.9-16.8,6.4-5.1,13.4-8.4,19.6-9.3,2.8-.4,5.7-.6,8.5-.6,11.1,0,22.1,3.2,31.9,9.3,11.3,7.1,20.5,17.7,25.8,29.9,4.5,10.3,5.9,20.9,4.2,30.8Z"/>
    <path class="st0" d="M261.2,479.1v.3c0,0,0-.3,0-.3-14.2-5.1-27.6-9.9-30.7-17.5-2.4-5.9-2-11,1.2-15.1,4.4-5.7,13.2-8.5,19.8-9.7,8.9-1.7,17.5-1.6,22.7-.9,6.2.8,11.7,2.4,18.5,5.3,1.2.5,2.8,1.3,3.8,2,1.9,1.2,2.2,1.6,4.1,3.4h3s-.9-1.1-.9-1.1c-10.5-12.7-44.4-17.2-66.1-8.7-15.4,6.1-18.1,15.8-17.7,23,.9,15.4,20.6,22.7,39.7,29.9,16.4,6.1,33.4,12.5,38.4,23.8,2.2,5,2,10.6-.7,17.2-2.9,7.2-8.7,12.7-16.8,15.9-12.6,4.9-34.4,2-44.1-2.3s-4.8-2.1-6.8-3.5c0,0-.2-.1-.3-.2-3.8-2.4-6.6-4.4-8.1-6.4-.5-.7-1.1-1.6-1.8-2.8h-2.6s.4,1.4,1.4,2.7c8.2,11.4,27.6,17.5,42.4,18.1.9,0,1.7,0,2.6,0,16.3,0,31.3-5.8,39.1-15.1,5.8-6.9,7.7-15.4,5.7-25.1-3.7-17.6-26-25.6-45.6-32.7Z"/>
    <path class="st0" d="M391.2,545.8c-.2,0-8.5,2.5-11,2.9-9.6,1.4-16.4.4-20.8-2.8-3.3-2.5-5.3-6.4-6.1-12.3l-.8-99.9h36.7v-1.9h-36.7c0,0,0-33.1,0-33.1h-6.1s0,.6,0,.6c.5,8.2-.3,19.4-7.2,26.5-4.5,4.5-10.9,6.6-19,6.1h-.5s0,1.8,0,1.8c0,0,15.4,0,21.8,0v94.1c0,1.2.3,4.2,1.3,7.6.9,2.8,2.6,6.7,5.8,9.2,6,4.6,12.9,6.9,21.1,6.9,8,0,16.2-2.2,22.4-4.1h.3c0,0-1.3-1.5-1.3-1.5Z"/>
    <polygon class="st0" points="668.2 433.7 668.2 552.5 675.3 552.5 675.3 433.7 668.2 433.7"/>
    <g>
      <path class="st0" d="M974.1,494.2v-.7c0,0-.9.3-.9.3h0c0,.2,0,.3,0,.4,0,.2,0,.3,0,.5.2,2.7,0,5.1-.3,7.9,0,.3,0,.6-.1.9-.9,6.2-3.1,12.3-6.5,18.1-.4.6-.8,1.3-1.2,2-.4.6-.8,1.2-1.2,1.8-.1.2-.3.4-.4.6-.2.2-.3.4-.5.6-.3.4-.5.7-.8,1.1-.8,1.1-1.7,2.1-2.7,3.2-.8.9-1.7,1.9-2.7,2.8-2.6,2.5-5.4,4.9-8.4,6.9-.7.5-1.4.9-2,1.3-6.2,3.5-11.1,5.6-16,6.8h0c-6.6,1.7-12.8,1.5-18.3-.6-4.9-1.8-9.4-5.1-13.4-9.8-.2-.3-.5-.5-.7-.8-.9-1.2-1.9-2.5-2.8-3.8h0c0-.1-.2-.3-.2-.4-.3-.5-.6-.9-.9-1.4-.7-1.1-1.4-2.2-2-3.4-.6-1.1-1.3-2.4-1.9-3.6-1.4-2.8-2.8-5.9-4.3-9.6-.5-1.4-2.9-7.3-3-7.6l-2.2-7.2,17.8-5.6,72.1-22.4h0c0-.1,0-.1,0-.1h0c-2.9-10.2-7.9-19.4-14.7-26.7-7.3-8-16.4-13.5-26.4-16-22.6-5.7-50.7,2.9-64.1,19.5-7.1,8.8-10.3,19.5-9.3,30.7h0c0,0,0,.1,0,.1,0,.3,0,.5-.1.6-.5,1.2-2.2,1.1-3.8,1-.9,0-1.8,0-2.3.1-1,.3-1.3,1.2-1.5,2-.2.5-.3,1-.6,1.4-.1.2-.3.4-.5.6-.4.5-.8,1-1,1.7,0,0,0,.2,0,.3v.2s0,0,0,0c0,.8,0,1.6.2,2.5,0,.5.1,1,.2,1.4,0,.6,0,1.1.1,1.7,0,1.1.1,2.2.3,3.3.6,4.3,1.7,9.1,3.5,14.4l-.4.2c-1-1.6-1.6-2.9-2-3.8-.4-.9-.6-1.9-.8-2.8-.2-.8-.3-1.5-.6-2.3v-.3c0,0,0-.1,0-.2.4-.3.6-.5.6-.7,0-.3-.3-.4-.6-.6-.1,0-.3-.2-.5-.3,0,0,0,0,0,0,0-.2-.2-.3-.2-.5-.3-.6-.6-1.2-.7-1.8h0c0-1.2.2-1.9.6-2.7.2-.6.5-1.2.6-2,.1-1.5-1.9-2.9-3-3,0,0,0,0-.3,0-1-.1-2,.2-2.7.7,0,0,0,0,0,0-.2,0-.3.1-.3.1-.6.6-.5,1.2-.2,1.7,0,.6.3,1.2.4,1.8.1.4.2.7.3,1,0,0,.6,2.5,1,2.7,0,0,.2,0,.2,0,.1,0,.1-.2.2-.3h0c0-.1,0-.2,0-.2,0-.1,0-.2,0-.4,0-.5.1-1.1.3-1.5,0-.1,0-.2.2-.2,0,0,.4.5.6,1.8.9,4.8,2.8,9.1,4.5,12.3,2.9,5.8,6,10.6,9.3,14.9,5.4,7.4,10.6,12.7,16.6,16.7h0c0-.1,0,0,0,0h.1c0,.1.1.2.2.2l.3.2c.2.1.4.3.6.4,3.3,2.1,7,3.9,11,5.4l.8.3c1.7.6,3.5,1.2,5.4,1.7.9.2,1.8.5,2.7.7,2,.4,4,.8,6,1.1h.1c.2,0,.3,0,.5,0,.8.1,1.6.2,2.4.3,2.6.3,5.1.4,7.7.4,14.7,0,28.9-4.2,39.7-12,.2-.1.4-.3.6-.5l.2-.2c2.5-1.9,4.9-4,7.1-6.3.8-.8,1.6-1.7,2.3-2.5.9-1.1,1.9-2.2,2.8-3.4.2-.3.4-.6.7-.9.7-1,1.4-2,2.1-3.1.4-.6.8-1.2,1.1-1.9,3.4-5.9,5.5-12,6.4-18.1.5-3.3.6-6.1.3-9.2ZM908,431.2h0c6.5,1.8,12.1,6.7,17.3,15.6,2.7,4.6,5.3,9.9,7.7,16.2,2.3,5.9,4.3,11.9,6.2,17.8l-41.6,13-17.6,5.5-3.5-11.4c0,0,0-.1,0-.2,0,0,0-.1,0-.1.5-.4.6-1.2.7-2.2,0-.3,0-.6.1-.9,0-.3.2-.6.3-.9.2-.5.4-1,.3-1.4,0,0,0-.1-.1-.2-.4-.4-.9-.8-1.4-1.1-.2-.2-.5-.4-.7-.5-.5-.4-1-.7-1.3-1.3,0,0-.1-.2-.2-.3,0,0,0,0,0,0-.1-1.3-.9-2.4-2.3-3-.9-.6-2.6-1-3.7-.7-.5.1-.9.4-1,.8,0,.2-.1.3-.2.5,0,.4.3.9.6,1.4,0,.1.2.3.2.4.5.9.6,1.3.2,1.6-.2.1-.4.1-.7.2-.4,0-1,.1-1.1.7h0c0,.4,0,.6-.1.9-.2.7-.5,1.1-1.1,1.2-.9.2-1.7,0-2.6-.3-.4-.1-.9-.3-1.4-.4-.4,0-.7-.1-1.1-.1-1.6-.2-2.8-.3-3-2.2h0c-.7-8.1,1-16.1,5.1-23.5,4.9-8.8,13.1-16.1,23-20.6,9.2-4.2,16.4-5.5,22.5-4.1.2,0,.3,0,.5.1h0Z"/>
      <path class="st0" d="M844.1,505.6h0c-.2-.6-.5-1.2-.7-1.7,0-.1-.1-.2-.2-.4-.3-.6-.5-.9-.7-.9s0,0,0,0c0,0-.1,0-.2.2v.3c-.1.5-.2,1.2-.2,1.7h0c0,.2,0,.3.1.4,0,0,0,0,0,.1l1.6,1.7h0s0,0,0,0c0,0,0,0,0,0,0,0,.1,0,.2,0,.2-.2,0-.9,0-1.2,0,0,0-.1,0-.2ZM844,506.9h0Z"/>
      <path class="st0" d="M862.2,476.9s0,0,0,0c0,0,0-.2,0-.2-.2-.4-.6-.7-1.2-.8-.5,0-.9.2-1.1.5-.1.1-.2.3-.3.4-.1.2-.1.5,0,.7h0c0,.1,0,.2.2.3.2.2.6.3,1,.4.2,0,.4.1.6.1s.3,0,.5-.1c.3-.1.5-.4.6-.8h0s0,0,0,0c0-.2,0-.2-.1-.3Z"/>
      <path class="st0" d="M862.3,533.1c-3-2.8-5.5-6.1-7.7-9h0c-.8-1.1-1.6-2.3-2.3-3.5-.6-1-1.3-2-1.9-2.9-.2-.3-.6-.9-1-1.3-.1-.1-.2-.3-.3-.3-.4-.4-.6-.5-.7-.4-.1,0-.1.3.2,1,.2.4.5.9.9,1.5,3.3,5.1,11.1,15.2,13.5,17.1.2.1.3.2.4.2s0,0,0,0c0,0,.1,0,.2-.1,0,0,0,0,0-.2,0-.4-.7-1.4-1.2-1.9l-.2-.2Z"/>
    </g>
  </g>
  <g>
    <path class="st0" d="M185.6,596.5v23.1h-2.8v-23.1h2.8Z"/>
    <path class="st0" d="M221.8,596.5v23.1h-3.5l-9.7-15.5-2.5-4.3h0v3.5c.1,0,.1,16.3.1,16.3h-2.7v-23.1h3.5l9.6,15.4,2.5,4.4h0v-3.5c-.1,0-.1-16.3-.1-16.3h2.7Z"/>
    <path class="st0" d="M256.1,596.5v2.6h-8.1v20.5h-2.8v-20.5h-8.1v-2.6h18.9Z"/>
    <path class="st0" d="M271.5,619.6v-23.1h16.2v2.6h-13.4v7.5h10.4v2.6h-10.4v7.8h13.9v2.6h-16.7Z"/>
    <path class="st0" d="M313.1,596.5c2.4,0,4.2.6,5.7,1.8,1.4,1.2,2.1,2.9,2.1,4.9s-.7,3.7-2.2,4.8c-1.4,1.2-3.3,1.7-5.7,1.7l-.2.2h-5.7v9.6h-2.8v-23.1h8.8ZM313.1,607.4c1.7,0,2.9-.3,3.7-1,.8-.7,1.2-1.7,1.2-3.1s-.4-2.4-1.2-3.1c-.8-.7-2-1-3.7-1h-5.9v8.3h5.9ZM314.7,608l7.6,11.7h-3.3l-6.7-10.1,2.3-1.5Z"/>
    <path class="st0" d="M340.9,596.5v23.1h-2.8v-23.1h2.8Z"/>
    <path class="st0" d="M368.3,596.2c2.2,0,4.1.5,5.7,1.5,1.6,1,2.8,2.3,3.7,4.1.9,1.8,1.3,3.9,1.3,6.3s-.4,4.6-1.3,6.3c-.9,1.8-2.1,3.1-3.7,4.1-1.6,1-3.5,1.5-5.7,1.5s-4.1-.5-5.7-1.5c-1.6-1-2.8-2.3-3.7-4.1-.9-1.8-1.3-3.9-1.3-6.3s.4-4.6,1.3-6.3c.9-1.8,2.1-3.1,3.7-4.1,1.6-1,3.5-1.5,5.7-1.5ZM368.3,598.8c-1.6,0-3,.4-4.1,1.1-1.2.7-2.1,1.8-2.7,3.2-.6,1.4-.9,3.1-.9,5s.3,3.6.9,5c.6,1.4,1.5,2.4,2.7,3.2,1.2.7,2.5,1.1,4.1,1.1s3-.4,4.1-1.1c1.2-.7,2-1.8,2.7-3.2.6-1.4.9-3.1.9-5s-.3-3.6-.9-5c-.6-1.4-1.5-2.4-2.7-3.2-1.2-.7-2.5-1.1-4.1-1.1Z"/>
    <path class="st0" d="M404.4,596.5c2.4,0,4.2.6,5.7,1.8,1.4,1.2,2.1,2.9,2.1,4.9s-.7,3.7-2.2,4.8c-1.4,1.2-3.3,1.7-5.7,1.7l-.2.2h-5.7v9.6h-2.8v-23.1h8.8ZM404.4,607.4c1.7,0,2.9-.3,3.7-1,.8-.7,1.2-1.7,1.2-3.1s-.4-2.4-1.2-3.1c-.8-.7-2-1-3.7-1h-5.9v8.3h5.9ZM406,608l7.6,11.7h-3.3l-6.7-10.1,2.3-1.5Z"/>
    <path class="st0" d="M432.3,596.5v23.1h-2.8v-23.1h2.8Z"/>
    <path class="st0" d="M457.7,596.2c2,0,3.8.4,5.2,1.2,1.5.8,2.7,2,3.7,3.7l-2.3,1.8c-.9-1.5-1.8-2.5-2.9-3.2-1.1-.6-2.4-.9-3.9-.9s-2.3.2-3.1.5c-.8.4-1.4.8-1.8,1.4-.4.6-.6,1.2-.6,1.9s.3,1.5.8,2.2c.5.6,1.5,1.1,3.1,1.5l5,1.1c2.2.5,3.8,1.2,4.6,2.2s1.3,2.2,1.3,3.7-.4,2.5-1.1,3.5-1.8,1.8-3.1,2.4c-1.3.6-2.9.8-4.7.8s-3.2-.2-4.4-.7c-1.3-.5-2.4-1.1-3.3-1.8-.9-.8-1.7-1.6-2.2-2.6l2.4-2c.4.9,1,1.7,1.7,2.3.7.7,1.5,1.2,2.5,1.6,1,.4,2.1.6,3.4.6s2.2-.1,3.1-.4c.9-.3,1.5-.7,2-1.3.5-.6.7-1.3.7-2.1s-.2-1.4-.7-2c-.5-.6-1.4-1-2.8-1.3l-5.4-1.2c-1.4-.3-2.6-.8-3.4-1.3-.9-.6-1.5-1.2-1.9-2-.4-.8-.6-1.6-.6-2.5s.3-2.4,1-3.4c.7-1,1.7-1.9,3-2.5,1.3-.6,2.8-.9,4.6-.9Z"/>
    <path class="st0" d="M505.6,596.5v23.1h-2.7v-14.5l.3-6.1h0l-7.6,20.6h-2.4l-7.6-20.6h0l.3,6.1v14.5h-2.7v-23.1h4.3l5.1,14,1.8,5.8h0l1.8-5.7,5-14.1h4.3Z"/>
    <path class="st0" d="M532.9,596.2c2.2,0,4.1.5,5.7,1.5,1.6,1,2.8,2.3,3.7,4.1.9,1.8,1.3,3.9,1.3,6.3s-.4,4.6-1.3,6.3c-.9,1.8-2.1,3.1-3.7,4.1-1.6,1-3.5,1.5-5.7,1.5s-4.1-.5-5.7-1.5c-1.6-1-2.8-2.3-3.7-4.1-.9-1.8-1.3-3.9-1.3-6.3s.4-4.6,1.3-6.3c.9-1.8,2.1-3.1,3.7-4.1,1.6-1,3.5-1.5,5.7-1.5ZM532.9,598.8c-1.6,0-3,.4-4.1,1.1-1.2.7-2.1,1.8-2.7,3.2-.6,1.4-.9,3.1-.9,5s.3,3.6.9,5c.6,1.4,1.5,2.4,2.7,3.2,1.2.7,2.5,1.1,4.1,1.1s3-.4,4.1-1.1c1.2-.7,2-1.8,2.7-3.2.6-1.4.9-3.1.9-5s-.3-3.6-.9-5c-.6-1.4-1.5-2.4-2.7-3.2-1.2-.7-2.5-1.1-4.1-1.1Z"/>
    <path class="st0" d="M582.8,619.6v-23.1h16.2v2.6h-13.4v7.5h10.4v2.6h-10.4v7.8h13.9v2.6h-16.7Z"/>
    <path class="st0" d="M633.7,596.5v23.1h-3.5l-9.7-15.5-2.4-4.3h0v3.5c.1,0,.1,16.3.1,16.3h-2.7v-23.1h3.5l9.6,15.4,2.5,4.4h0v-3.5c-.1,0-.1-16.3-.1-16.3h2.7Z"/>
    <path class="st0" d="M674.2,619.6v-23.1h16.2v2.6h-13.4v7.5h10.4v2.6h-10.4v7.8h13.9v2.6h-16.7Z"/>
    <path class="st0" d="M714.5,596.2c2,0,3.8.4,5.2,1.2,1.5.8,2.7,2,3.7,3.7l-2.3,1.8c-.9-1.5-1.8-2.5-2.9-3.2-1.1-.6-2.4-.9-3.9-.9s-2.3.2-3.1.5c-.8.4-1.4.8-1.8,1.4-.4.6-.6,1.2-.6,1.9s.3,1.5.8,2.2c.5.6,1.5,1.1,3.1,1.5l5,1.1c2.2.5,3.8,1.2,4.6,2.2s1.3,2.2,1.3,3.7-.4,2.5-1.1,3.5c-.7,1-1.8,1.8-3.1,2.4-1.3.6-2.9.8-4.7.8s-3.2-.2-4.4-.7c-1.3-.5-2.4-1.1-3.3-1.8-.9-.8-1.7-1.6-2.2-2.6l2.5-2c.4.9,1,1.7,1.7,2.3.7.7,1.5,1.2,2.5,1.6,1,.4,2.1.6,3.4.6s2.2-.1,3.1-.4c.9-.3,1.5-.7,2-1.3.5-.6.7-1.3.7-2.1s-.2-1.4-.7-2c-.5-.6-1.4-1-2.8-1.3l-5.4-1.2c-1.4-.3-2.6-.8-3.4-1.3-.9-.6-1.5-1.2-1.9-2-.4-.8-.6-1.6-.6-2.5s.3-2.4,1-3.4c.7-1,1.7-1.9,3-2.5,1.3-.6,2.8-.9,4.6-.9Z"/>
    <path class="st0" d="M740,619.6v-23.1h16.2v2.6h-13.4v7.5h10.4v2.6h-10.4v7.8h13.9v2.6h-16.7Z"/>
    <path class="st0" d="M790.9,596.5v23.1h-3.5l-9.7-15.5-2.4-4.3h0v3.5c.1,0,.1,16.3.1,16.3h-2.7v-23.1h3.5l9.6,15.4,2.5,4.4h0v-3.5c-.1,0-.1-16.3-.1-16.3h2.7Z"/>
    <path class="st0" d="M827.6,613.7c-.5,1.3-1.2,2.4-2.1,3.4-.9.9-2,1.7-3.2,2.2-1.2.5-2.6.7-4,.7-2.2,0-4.1-.5-5.7-1.5-1.6-1-2.8-2.3-3.7-4.1-.9-1.8-1.3-3.9-1.3-6.3s.4-4.6,1.3-6.3c.9-1.8,2.1-3.1,3.7-4.1,1.6-1,3.5-1.5,5.6-1.5s2.8.2,4,.6c1.2.4,2.2,1,3,1.8.8.8,1.5,1.8,2,3l-2.8,1.3c-.5-1.3-1.3-2.3-2.2-3-1-.7-2.2-1-3.8-1s-2.9.4-4.1,1.1c-1.2.7-2.1,1.8-2.8,3.2-.7,1.4-1,3-1,5s.3,3.6.9,5c.6,1.4,1.5,2.4,2.7,3.2,1.2.7,2.5,1.1,4.1,1.1s2.9-.4,4-1.2c1.1-.8,2-2,2.5-3.5l2.8,1Z"/>
    <path class="st0" d="M846.3,596.5v23.1h-2.8v-23.1h2.8Z"/>
    <path class="st0" d="M882.8,619.6h-3l-2.5-6.4h-10.5l-2.4,6.4h-2.9l9-23.1h3.3l9,23.1ZM867.9,610.6h8.4l-4.2-11.4-4.2,11.4Z"/>
  </g>
</svg>